<svg width="16" height="16" viewBox="0 0 16 16" fill="none" xmlns="http://www.w3.org/2000/svg">
<g clip-path="url(#clip0_98_198)">
<path d="M7.99967 1.33301C4.31967 1.33301 1.33301 4.31967 1.33301 7.99967C1.33301 11.6797 4.31967 14.6663 7.99967 14.6663C11.6797 14.6663 14.6663 11.6797 14.6663 7.99967C14.6663 4.31967 11.6797 1.33301 7.99967 1.33301ZM4.71301 12.1863C4.99967 11.5863 6.74634 10.9997 7.99967 10.9997C9.25301 10.9997 11.0063 11.5863 11.2863 12.1863C10.3797 12.9063 9.23967 13.333 7.99967 13.333C6.75967 13.333 5.61967 12.9063 4.71301 12.1863ZM12.2397 11.2197C11.2863 10.0597 8.97301 9.66634 7.99967 9.66634C7.02634 9.66634 4.71301 10.0597 3.75967 11.2197C3.07967 10.3263 2.66634 9.21301 2.66634 7.99967C2.66634 5.05967 5.05967 2.66634 7.99967 2.66634C10.9397 2.66634 13.333 5.05967 13.333 7.99967C13.333 9.21301 12.9197 10.3263 12.2397 11.2197ZM7.99967 3.99967C6.70634 3.99967 5.66634 5.03967 5.66634 6.33301C5.66634 7.62634 6.70634 8.66634 7.99967 8.66634C9.29301 8.66634 10.333 7.62634 10.333 6.33301C10.333 5.03967 9.29301 3.99967 7.99967 3.99967ZM7.99967 7.33301C7.44634 7.33301 6.99967 6.88634 6.99967 6.33301C6.99967 5.77967 7.44634 5.33301 7.99967 5.33301C8.55301 5.33301 8.99967 5.77967 8.99967 6.33301C8.99967 6.88634 8.55301 7.33301 7.99967 7.33301Z" fill="#510000"/>
</g>
<defs>
<clipPath id="clip0_98_198">
<rect width="16" height="16" fill="white"/>
</clipPath>
</defs>
</svg>
