<svg width="40" height="40" viewBox="0 0 40 40" fill="none" xmlns="http://www.w3.org/2000/svg">
<circle cx="20" cy="20" r="20" fill="#510000"/>
<path d="M25 11.5001C25 11.3674 24.9473 11.2403 24.8536 11.1465C24.7598 11.0527 24.6326 11.0001 24.5 11.0001H22C20.7411 10.9373 19.5086 11.3754 18.5717 12.2186C17.6348 13.0618 17.0698 14.2415 17 15.5001V18.2001H14.5C14.3674 18.2001 14.2402 18.2527 14.1464 18.3465C14.0527 18.4403 14 18.5674 14 18.7001V21.3001C14 21.4327 14.0527 21.5598 14.1464 21.6536C14.2402 21.7474 14.3674 21.8001 14.5 21.8001H17V28.5001C17 28.6327 17.0527 28.7598 17.1464 28.8536C17.2402 28.9474 17.3674 29.0001 17.5 29.0001H20.5C20.6326 29.0001 20.7598 28.9474 20.8536 28.8536C20.9473 28.7598 21 28.6327 21 28.5001V21.8001H23.62C23.7312 21.8017 23.8397 21.7661 23.9285 21.6991C24.0172 21.6321 24.0811 21.5374 24.11 21.4301L24.83 18.8301C24.8499 18.7562 24.8526 18.6787 24.8378 18.6036C24.8231 18.5286 24.7913 18.4579 24.7449 18.397C24.6985 18.3362 24.6388 18.2868 24.5704 18.2526C24.5019 18.2185 24.4265 18.2005 24.35 18.2001H21V15.5001C21.0249 15.2525 21.1411 15.0232 21.326 14.8567C21.5109 14.6903 21.7512 14.5988 22 14.6001H24.5C24.6326 14.6001 24.7598 14.5474 24.8536 14.4536C24.9473 14.3598 25 14.2327 25 14.1001V11.5001Z" fill="#FEFEFE"/>
</svg>
