<svg width="20" height="20" viewBox="0 0 20 20" fill="none" xmlns="http://www.w3.org/2000/svg">
<path d="M5.83334 1.66663C5.1703 1.66663 4.53442 1.93002 4.06558 2.39886C3.59674 2.8677 3.33334 3.50358 3.33334 4.16663V15.8333C3.33334 16.4963 3.59674 17.1322 4.06558 17.6011C4.53442 18.0699 5.1703 18.3333 5.83334 18.3333H14.1667C14.8297 18.3333 15.4656 18.0699 15.9344 17.6011C16.4033 17.1322 16.6667 16.4963 16.6667 15.8333V15C16.6667 14.5397 16.2936 14.1666 15.8333 14.1666C15.3731 14.1666 15 14.5397 15 15V15.8333C15 16.0543 14.9122 16.2663 14.7559 16.4225C14.5997 16.5788 14.3877 16.6666 14.1667 16.6666H5.83334C5.61233 16.6666 5.40037 16.5788 5.24409 16.4225C5.08781 16.2663 5.00001 16.0543 5.00001 15.8333V4.16663C5.00001 3.94561 5.08781 3.73365 5.24409 3.57737C5.40037 3.42109 5.61233 3.33329 5.83334 3.33329H14.1667C14.3877 3.33329 14.5997 3.42109 14.7559 3.57737C14.9122 3.73365 15 3.94561 15 4.16663V4.99996C15 5.4602 15.3731 5.83329 15.8333 5.83329C16.2936 5.83329 16.6667 5.4602 16.6667 4.99996V4.16663C16.6667 3.50358 16.4033 2.8677 15.9344 2.39886C15.4656 1.93002 14.8297 1.66663 14.1667 1.66663H5.83334Z" fill="#D55F5A"/>
<path d="M13.9226 6.9107C13.5972 6.58527 13.0695 6.58527 12.7441 6.9107C12.4187 7.23614 12.4187 7.76378 12.7441 8.08921L13.8215 9.16663H10C9.53977 9.16663 9.16668 9.53972 9.16668 9.99996C9.16668 10.4602 9.53977 10.8333 10 10.8333H13.8215L12.7441 11.9107C12.4187 12.2361 12.4187 12.7638 12.7441 13.0892C13.0695 13.4147 13.5972 13.4147 13.9226 13.0892L16.4226 10.5892C16.748 10.2638 16.748 9.73614 16.4226 9.4107L13.9226 6.9107Z" fill="#D55F5A"/>
</svg>
