<svg width="20" height="20" viewBox="0 0 20 20" fill="none" xmlns="http://www.w3.org/2000/svg">
<g clip-path="url(#clip0_2502_2344)">
<path d="M8.33334 7.50004C8.33334 7.0109 8.51579 6.69807 8.7553 6.49484C9.01294 6.27624 9.38615 6.14587 9.79168 6.14587C10.1972 6.14587 10.5704 6.27624 10.8281 6.49484C11.0676 6.69807 11.25 7.0109 11.25 7.50004C11.25 7.86435 11.1642 8.0666 11.0644 8.21618C10.9481 8.39069 10.795 8.5283 10.5361 8.76102L10.4842 8.80771C10.2179 9.04741 9.86748 9.37146 9.60032 9.84345C9.32499 10.3299 9.16668 10.9176 9.16668 11.6667C9.16668 12.1269 9.53977 12.5 10 12.5C10.4602 12.5 10.8333 12.1269 10.8333 11.6667C10.8333 11.1658 10.9355 10.8681 11.0507 10.6644C11.1742 10.4463 11.3447 10.2756 11.5991 10.0465C11.6221 10.0259 11.6462 10.0044 11.6714 9.98194C11.8991 9.77896 12.211 9.50091 12.4512 9.14068C12.7421 8.70432 12.9167 8.1774 12.9167 7.50004C12.9167 6.53085 12.5262 5.74993 11.9063 5.22399C11.3046 4.71342 10.532 4.47921 9.79168 4.47921C9.05138 4.47921 8.27875 4.71342 7.67701 5.22399C7.05715 5.74993 6.66668 6.53085 6.66668 7.50004C6.66668 7.96028 7.03977 8.33337 7.50001 8.33337C7.96025 8.33337 8.33334 7.96028 8.33334 7.50004Z" fill="#757575"/>
<path d="M10.6249 15.5598C10.9345 15.2192 10.9095 14.6922 10.5689 14.3826C10.2284 14.073 9.70134 14.0981 9.39174 14.4386L9.38341 14.4478C9.07381 14.7883 9.09889 15.3154 9.43943 15.625C9.77997 15.9346 10.307 15.9095 10.6166 15.569L10.6249 15.5598Z" fill="#757575"/>
<path fill-rule="evenodd" clip-rule="evenodd" d="M10 0.833374C4.93727 0.833374 0.833344 4.9373 0.833344 10C0.833344 15.0628 4.93727 19.1667 10 19.1667C15.0627 19.1667 19.1667 15.0628 19.1667 10C19.1667 4.9373 15.0627 0.833374 10 0.833374ZM2.50001 10C2.50001 5.85778 5.85775 2.50004 10 2.50004C14.1423 2.50004 17.5 5.85778 17.5 10C17.5 14.1423 14.1423 17.5 10 17.5C5.85775 17.5 2.50001 14.1423 2.50001 10Z" fill="#757575"/>
</g>
<defs>
<clipPath id="clip0_2502_2344">
<rect width="20" height="20" fill="white"/>
</clipPath>
</defs>
</svg>
