<svg width="20" height="20" viewBox="0 0 20 20" fill="none" xmlns="http://www.w3.org/2000/svg">
<path fill-rule="evenodd" clip-rule="evenodd" d="M10 2.5C8.89494 2.5 7.83513 2.93899 7.05373 3.72039C6.27233 4.50179 5.83334 5.5616 5.83334 6.66667C5.83334 7.77174 6.27233 8.83154 7.05373 9.61294C7.1087 9.66791 7.16504 9.72119 7.22268 9.77273C6.50892 10.0998 5.85182 10.5534 5.28596 11.1193C4.03572 12.3695 3.33334 14.0652 3.33334 15.8333V16.6667C3.33334 17.1269 3.70644 17.5 4.16668 17.5C4.62691 17.5 5.00001 17.1269 5.00001 16.6667V15.8333C5.00001 14.5073 5.52679 13.2355 6.46448 12.2978C7.40216 11.3601 8.67393 10.8333 10 10.8333C11.3261 10.8333 12.5979 11.3601 13.5355 12.2978C14.4732 13.2355 15 14.5073 15 15.8333V16.6667C15 17.1269 15.3731 17.5 15.8333 17.5C16.2936 17.5 16.6667 17.1269 16.6667 16.6667V15.8333C16.6667 14.0652 15.9643 12.3695 14.7141 11.1193C14.1482 10.5534 13.4911 10.0998 12.7773 9.77273C12.835 9.72119 12.8913 9.66791 12.9463 9.61294C13.7277 8.83154 14.1667 7.77174 14.1667 6.66667C14.1667 5.5616 13.7277 4.50179 12.9463 3.72039C12.1649 2.93899 11.1051 2.5 10 2.5ZM8.23224 4.8989C8.70108 4.43006 9.33697 4.16667 10 4.16667C10.6631 4.16667 11.2989 4.43006 11.7678 4.8989C12.2366 5.36774 12.5 6.00363 12.5 6.66667C12.5 7.32971 12.2366 7.96559 11.7678 8.43443C11.2989 8.90327 10.6631 9.16667 10 9.16667C9.33697 9.16667 8.70108 8.90327 8.23224 8.43443C7.7634 7.96559 7.50001 7.32971 7.50001 6.66667C7.50001 6.00363 7.7634 5.36774 8.23224 4.8989Z" fill="#757575"/>
</svg>
