<svg width="20" height="20" viewBox="0 0 20 20" fill="none" xmlns="http://www.w3.org/2000/svg">
<path d="M7.74175 5.59148C7.6645 5.66858 7.60321 5.76015 7.56139 5.86096C7.51957 5.96177 7.49805 6.06984 7.49805 6.17898C7.49805 6.28812 7.51957 6.39619 7.56139 6.497C7.60321 6.59781 7.6645 6.68939 7.74175 6.76648L10.9751 9.99981L7.74175 13.2331C7.6646 13.3103 7.6034 13.4019 7.56165 13.5027C7.51989 13.6035 7.4984 13.7115 7.4984 13.8206C7.4984 13.9298 7.51989 14.0378 7.56165 14.1386C7.6034 14.2394 7.6646 14.331 7.74175 14.4081C7.8189 14.4853 7.91049 14.5465 8.0113 14.5883C8.1121 14.63 8.22014 14.6515 8.32925 14.6515C8.43836 14.6515 8.5464 14.63 8.6472 14.5883C8.74801 14.5465 8.8396 14.4853 8.91675 14.4081L12.7418 10.5831C12.819 10.5061 12.8803 10.4145 12.9221 10.3137C12.9639 10.2129 12.9855 10.1048 12.9855 9.99565C12.9855 9.88651 12.9639 9.77844 12.9221 9.67763C12.8803 9.57682 12.819 9.48524 12.7418 9.40815L8.91675 5.58315C8.60008 5.26648 8.06675 5.26648 7.74175 5.59148Z" fill="#0A0A0A"/>
</svg>
