<svg width="25" height="25" viewBox="0 0 25 25" fill="none" xmlns="http://www.w3.org/2000/svg">
<path d="M18.502 22C17.8087 22 17.2183 21.7567 16.731 21.27C16.2437 20.7847 16 20.1947 16 19.5C16 19.3667 16.0117 19.229 16.035 19.087C16.0577 18.9443 16.092 18.8103 16.138 18.685L8.396 14.123C8.15133 14.399 7.86667 14.614 7.542 14.768C7.218 14.9227 6.87067 15 6.5 15C5.80533 15 5.21533 14.7573 4.73 14.272C4.24333 13.786 4 13.196 4 12.502C4 11.8087 4.24333 11.2183 4.73 10.731C5.21467 10.2437 5.80467 10 6.5 10C6.87067 10 7.218 10.0773 7.542 10.232C7.86667 10.386 8.15133 10.601 8.396 10.877L16.138 6.315C16.092 6.18967 16.0577 6.05567 16.035 5.913C16.0117 5.771 16 5.63333 16 5.5C16 4.80533 16.243 4.21533 16.729 3.73C17.2143 3.24333 17.804 3 18.498 3C19.1913 3 19.7817 3.243 20.269 3.729C20.7563 4.21433 21 4.804 21 5.498C21 6.19133 20.7567 6.78167 20.27 7.269C19.7847 7.75633 19.1947 8 18.5 8C18.1293 8 17.782 7.92267 17.458 7.768C17.1333 7.614 16.8487 7.399 16.604 7.123L8.862 11.685C8.908 11.8103 8.94233 11.9437 8.965 12.085C8.98833 12.227 9 12.364 9 12.496C9 12.628 8.98833 12.7663 8.965 12.911C8.94233 13.055 8.908 13.1897 8.862 13.315L16.604 17.877C16.8487 17.601 17.1333 17.386 17.458 17.232C17.782 17.0773 18.1293 17 18.5 17C19.1947 17 19.7847 17.243 20.27 17.729C20.7567 18.2143 21 18.804 21 19.498C21 20.1913 20.7573 20.7817 20.272 21.269C19.786 21.7563 19.196 22 18.502 22Z" fill="#510000"/>
</svg>
