<svg width="20" height="21" viewBox="0 0 20 21" fill="none" xmlns="http://www.w3.org/2000/svg">
<path d="M10.0003 10.0837C9.44779 10.0837 8.91789 9.86417 8.52719 9.47346C8.13649 9.08276 7.91699 8.55286 7.91699 8.00033C7.91699 7.44779 8.13649 6.91789 8.52719 6.52719C8.91789 6.13649 9.44779 5.91699 10.0003 5.91699C10.5529 5.91699 11.0828 6.13649 11.4735 6.52719C11.8642 6.91789 12.0837 7.44779 12.0837 8.00033C12.0837 8.27391 12.0298 8.54482 11.9251 8.79758C11.8204 9.05034 11.6669 9.28001 11.4735 9.47346C11.28 9.66692 11.0503 9.82038 10.7976 9.92507C10.5448 10.0298 10.2739 10.0837 10.0003 10.0837ZM10.0003 2.16699C8.45323 2.16699 6.9695 2.78157 5.87554 3.87554C4.78157 4.9695 4.16699 6.45323 4.16699 8.00033C4.16699 12.3753 10.0003 18.8337 10.0003 18.8337C10.0003 18.8337 15.8337 12.3753 15.8337 8.00033C15.8337 6.45323 15.2191 4.9695 14.1251 3.87554C13.0312 2.78157 11.5474 2.16699 10.0003 2.16699Z" fill="#FEFEFE"/>
</svg>
