<svg width="12" height="12" viewBox="0 0 12 12" fill="none" xmlns="http://www.w3.org/2000/svg">
<path fill-rule="evenodd" clip-rule="evenodd" d="M7.61925 8.03992C7.56399 8.09142 7.51966 8.15352 7.48891 8.22252C7.45817 8.29152 7.44164 8.366 7.44031 8.44153C7.43897 8.51706 7.45287 8.59208 7.48116 8.66212C7.50945 8.73216 7.55156 8.79579 7.60497 8.8492C7.65838 8.90262 7.72201 8.94472 7.79205 8.97301C7.86209 9.00131 7.93711 9.0152 8.01264 9.01387C8.08817 9.01253 8.16265 8.996 8.23165 8.96526C8.30065 8.93451 8.36275 8.89019 8.41425 8.83492L10.8517 6.39742L11.25 5.99992L10.8525 5.60242L8.415 3.16492C8.30896 3.06241 8.1669 3.00564 8.01941 3.00685C7.87192 3.00807 7.73081 3.06716 7.62647 3.1714C7.52213 3.27564 7.46291 3.4167 7.46156 3.56418C7.4602 3.71167 7.51684 3.85379 7.61925 3.95992L9.09675 5.43742H1.3125C1.16332 5.43742 1.02024 5.49669 0.914752 5.60218C0.809263 5.70766 0.75 5.85074 0.75 5.99992C0.75 6.14911 0.809263 6.29218 0.914752 6.39767C1.02024 6.50316 1.16332 6.56242 1.3125 6.56242H9.09675L7.61925 8.03992Z" fill="#02AADF"/>
</svg>
