<svg width="20" height="21" viewBox="0 0 20 21" fill="none" xmlns="http://www.w3.org/2000/svg">
<path d="M11.8961 3.46312C11.9173 3.3838 11.954 3.30944 12.0039 3.24429C12.0539 3.17913 12.1162 3.12446 12.1873 3.0834C12.2584 3.04233 12.3369 3.01568 12.4183 3.00496C12.4997 2.99425 12.5824 2.99967 12.6617 3.02094C13.8204 3.32324 14.8775 3.92894 15.7242 4.77565C16.5709 5.62236 17.1766 6.67948 17.4789 7.83812C17.5002 7.91743 17.5056 8.00015 17.4949 8.08155C17.4842 8.16296 17.4575 8.24145 17.4165 8.31255C17.3754 8.38366 17.3207 8.44597 17.2556 8.49593C17.1904 8.5459 17.116 8.58253 17.0367 8.60375C16.9839 8.61762 16.9296 8.6247 16.875 8.62484C16.7374 8.62488 16.6036 8.5795 16.4944 8.49573C16.3852 8.41196 16.3067 8.2945 16.2711 8.16156C16.0247 7.21557 15.5304 6.35243 14.8392 5.66113C14.1481 4.96982 13.285 4.47537 12.3391 4.22875C12.2597 4.20762 12.1852 4.17104 12.12 4.12111C12.0548 4.07118 12 4.00888 11.9589 3.93777C11.9177 3.86666 11.891 3.78814 11.8802 3.7067C11.8695 3.62525 11.8749 3.54248 11.8961 3.46312ZM11.7141 6.72875C12.7914 7.01625 13.4836 7.70922 13.7711 8.78656C13.8067 8.9195 13.8852 9.03696 13.9944 9.12073C14.1036 9.2045 14.2374 9.24988 14.375 9.24984C14.4296 9.2497 14.4839 9.24262 14.5367 9.22875C14.616 9.20753 14.6904 9.1709 14.7556 9.12093C14.8207 9.07097 14.8754 9.00866 14.9165 8.93755C14.9575 8.86645 14.9842 8.78796 14.9949 8.70655C15.0056 8.62515 15.0002 8.54243 14.9789 8.46312C14.5789 6.96625 13.5336 5.92094 12.0367 5.52094C11.9574 5.49975 11.8747 5.49439 11.7933 5.50517C11.712 5.51594 11.6335 5.54264 11.5624 5.58374C11.4914 5.62484 11.4291 5.67953 11.3792 5.74469C11.3293 5.80985 11.2927 5.88421 11.2715 5.96351C11.2503 6.04282 11.2449 6.12552 11.2557 6.2069C11.2665 6.28828 11.2932 6.36673 11.3343 6.43779C11.3754 6.50885 11.4301 6.57112 11.4952 6.62104C11.5604 6.67096 11.6348 6.70756 11.7141 6.72875ZM17.3727 12.8795L13.6922 11.2303L13.682 11.2256C13.491 11.1439 13.2825 11.1111 13.0756 11.1302C12.8687 11.1493 12.6698 11.2197 12.4969 11.335C12.4765 11.3484 12.457 11.3631 12.4383 11.3787L10.5367 12.9998C9.33204 12.4147 8.08829 11.1803 7.50313 9.99125L9.12657 8.06078C9.14219 8.04125 9.15704 8.02172 9.1711 8.00062C9.28394 7.8282 9.35239 7.63056 9.37039 7.42529C9.38838 7.22002 9.35534 7.01348 9.27423 6.82406V6.81469L7.62032 3.12797C7.51309 2.88052 7.3287 2.67438 7.09468 2.54034C6.86067 2.4063 6.58958 2.35153 6.32188 2.38422C5.26326 2.52352 4.29155 3.04341 3.58824 3.84679C2.88492 4.65017 2.49809 5.6821 2.50001 6.74984C2.50001 12.953 7.54688 17.9998 13.75 17.9998C14.8177 18.0018 15.8497 17.6149 16.6531 16.9116C17.4564 16.2083 17.9763 15.2366 18.1156 14.178C18.1484 13.9104 18.0937 13.6393 17.9598 13.4053C17.8259 13.1713 17.62 12.9869 17.3727 12.8795Z" fill="#FEFEFE"/>
</svg>
