<svg width="16" height="16" viewBox="0 0 16 16" fill="none" xmlns="http://www.w3.org/2000/svg">
<path fill-rule="evenodd" clip-rule="evenodd" d="M8.00014 14.1257L8.4809 13.584C9.02643 12.9593 9.51709 12.3665 9.95366 11.8027L10.314 11.3273C11.8188 9.29983 12.5716 7.69069 12.5716 6.50136C12.5716 3.96269 10.5251 1.90479 8.00014 1.90479C5.47519 1.90479 3.42871 3.96269 3.42871 6.50136C3.42871 7.69069 4.18147 9.29983 5.68623 11.3273L6.04662 11.8027C6.66943 12.6007 7.32103 13.3751 8.00014 14.1257Z" stroke="#888686" stroke-linecap="round" stroke-linejoin="round"/>
<path d="M8.00047 8.38106C9.05244 8.38106 9.90523 7.52827 9.90523 6.4763C9.90523 5.42432 9.05244 4.57153 8.00047 4.57153C6.94849 4.57153 6.0957 5.42432 6.0957 6.4763C6.0957 7.52827 6.94849 8.38106 8.00047 8.38106Z" stroke="#888686" stroke-linecap="round" stroke-linejoin="round"/>
</svg>
