<svg width="745" height="63" viewBox="0 0 745 63" fill="none" xmlns="http://www.w3.org/2000/svg">
<path d="M2 41.3101C13.7291 38.8099 41.1888 31.8093 57.1955 23.8087C77.2039 13.8078 82.0335 1.30679 148.268 13.8078C214.503 26.3089 204.154 20.3082 226.232 23.8087C243.894 26.609 278.668 44.3105 293.846 52.8112C305.575 60.6452 334.277 69.8126 355.251 43.8105C381.469 11.3078 418.931 -2.5 443.564 3.80715C466.913 9.78537 509.109 39.3098 523.598 40.3099C538.087 41.31 543.606 40.3099 599.492 17.308C644.2 -1.09356 713.792 19.3081 743 31.8092" stroke="url(#paint0_linear_529_1188)" stroke-width="4" stroke-linecap="round"/>
<defs>
<linearGradient id="paint0_linear_529_1188" x1="2.00001" y1="31.9998" x2="743" y2="31.9999" gradientUnits="userSpaceOnUse">
<stop stop-color="#F4947E"/>
<stop offset="1" stop-color="#FA2F2F"/>
</linearGradient>
</defs>
</svg>
