<svg width="16" height="16" viewBox="0 0 16 16" fill="none" xmlns="http://www.w3.org/2000/svg">
<g clip-path="url(#clip0_2501_3166)">
<path d="M7.99967 1.33337C4.31967 1.33337 1.33301 4.32004 1.33301 8.00004C1.33301 11.68 4.31967 14.6667 7.99967 14.6667C11.6797 14.6667 14.6663 11.68 14.6663 8.00004C14.6663 4.32004 11.6797 1.33337 7.99967 1.33337ZM4.71301 12.1867C4.99967 11.5867 6.74634 11 7.99967 11C9.25301 11 11.0063 11.5867 11.2863 12.1867C10.3797 12.9067 9.23967 13.3334 7.99967 13.3334C6.75967 13.3334 5.61967 12.9067 4.71301 12.1867ZM12.2397 11.22C11.2863 10.06 8.97301 9.66671 7.99967 9.66671C7.02634 9.66671 4.71301 10.06 3.75967 11.22C3.07967 10.3267 2.66634 9.21337 2.66634 8.00004C2.66634 5.06004 5.05967 2.66671 7.99967 2.66671C10.9397 2.66671 13.333 5.06004 13.333 8.00004C13.333 9.21337 12.9197 10.3267 12.2397 11.22ZM7.99967 4.00004C6.70634 4.00004 5.66634 5.04004 5.66634 6.33337C5.66634 7.62671 6.70634 8.66671 7.99967 8.66671C9.29301 8.66671 10.333 7.62671 10.333 6.33337C10.333 5.04004 9.29301 4.00004 7.99967 4.00004ZM7.99967 7.33337C7.44634 7.33337 6.99967 6.88671 6.99967 6.33337C6.99967 5.78004 7.44634 5.33337 7.99967 5.33337C8.55301 5.33337 8.99967 5.78004 8.99967 6.33337C8.99967 6.88671 8.55301 7.33337 7.99967 7.33337Z" fill="white"/>
</g>
<defs>
<clipPath id="clip0_2501_3166">
<rect width="16" height="16" fill="white"/>
</clipPath>
</defs>
</svg>
