<svg width="25" height="24" viewBox="0 0 25 24" fill="none" xmlns="http://www.w3.org/2000/svg">
<path d="M19.488 2.01221L22.488 5.01221L20.201 7.30021L17.201 4.30021L19.488 2.01221ZM8.5 16.0002H11.5L18.787 8.71321L15.787 5.71321L8.5 13.0002V16.0002Z" fill="#222222" fill-opacity="0.5"/>
<path d="M19.5 19H8.658C8.632 19 8.605 19.01 8.579 19.01C8.546 19.01 8.513 19.001 8.479 19H5.5V5H12.347L14.347 3H5.5C4.397 3 3.5 3.896 3.5 5V19C3.5 20.104 4.397 21 5.5 21H19.5C20.0304 21 20.5391 20.7893 20.9142 20.4142C21.2893 20.0391 21.5 19.5304 21.5 19V10.332L19.5 12.332V19Z" fill="#222222" fill-opacity="0.5"/>
</svg>
