<svg width="16" height="16" viewBox="0 0 16 16" fill="none" xmlns="http://www.w3.org/2000/svg">
<g clip-path="url(#clip0_692_1892)">
<path d="M5.33301 10.6666V12.5333C5.33301 13.28 5.33301 13.6534 5.47833 13.9386C5.60616 14.1895 5.81014 14.3934 6.06102 14.5213C6.34624 14.6666 6.7196 14.6666 7.46634 14.6666H12.533C13.2797 14.6666 13.6531 14.6666 13.9383 14.5213C14.1892 14.3934 14.3932 14.1895 14.521 13.9386C14.6663 13.6534 14.6663 13.28 14.6663 12.5333V7.46659C14.6663 6.71985 14.6663 6.34648 14.521 6.06126C14.3932 5.81038 14.1892 5.60641 13.9383 5.47858C13.6531 5.33325 13.2797 5.33325 12.533 5.33325H10.6663M3.46634 10.6666H8.53301C9.27974 10.6666 9.65311 10.6666 9.93833 10.5213C10.1892 10.3934 10.3932 10.1895 10.521 9.93857C10.6663 9.65336 10.6663 9.27999 10.6663 8.53325V3.46659C10.6663 2.71985 10.6663 2.34648 10.521 2.06126C10.3932 1.81038 10.1892 1.60641 9.93833 1.47858C9.65311 1.33325 9.27974 1.33325 8.53301 1.33325H3.46634C2.7196 1.33325 2.34624 1.33325 2.06102 1.47858C1.81014 1.60641 1.60616 1.81038 1.47833 2.06126C1.33301 2.34648 1.33301 2.71985 1.33301 3.46659V8.53325C1.33301 9.27999 1.33301 9.65336 1.47833 9.93857C1.60616 10.1895 1.81014 10.3934 2.06102 10.5213C2.34624 10.6666 2.7196 10.6666 3.46634 10.6666Z" stroke="#ACACAC" stroke-width="1.5" stroke-linecap="round" stroke-linejoin="round"/>
</g>
<defs>
<clipPath id="clip0_692_1892">
<rect width="16" height="16" fill="white"/>
</clipPath>
</defs>
</svg>
