<svg width="24" height="24" viewBox="0 0 24 24" fill="none" xmlns="http://www.w3.org/2000/svg">
<path d="M19.5 12C19.5 11.8011 19.579 11.6103 19.7197 11.4697C19.8603 11.329 20.0511 11.25 20.25 11.25C20.4489 11.25 20.6397 11.329 20.7803 11.4697C20.921 11.6103 21 11.8011 21 12V20.25C21 20.4489 20.921 20.6397 20.7803 20.7803C20.6397 20.921 20.4489 21 20.25 21H3.75C3.55109 21 3.36032 20.921 3.21967 20.7803C3.07902 20.6397 3 20.4489 3 20.25V3.75C3 3.55109 3.07902 3.36032 3.21967 3.21967C3.36032 3.07902 3.55109 3 3.75 3H12C12.1989 3 12.3897 3.07902 12.5303 3.21967C12.671 3.36032 12.75 3.55109 12.75 3.75C12.75 3.94891 12.671 4.13968 12.5303 4.28033C12.3897 4.42098 12.1989 4.5 12 4.5H4.5V19.5H19.5V12Z" fill="black"/>
<path d="M11.0145 12.99L12.252 12.813L19.854 5.21251C19.9256 5.14332 19.9827 5.06056 20.0221 4.96906C20.0614 4.87756 20.082 4.77914 20.0829 4.67956C20.0838 4.57998 20.0648 4.48122 20.0271 4.38904C19.9894 4.29687 19.9337 4.21313 19.8633 4.14271C19.7929 4.07229 19.7091 4.0166 19.6169 3.97889C19.5248 3.94118 19.426 3.92221 19.3264 3.92307C19.2268 3.92394 19.1284 3.94463 19.0369 3.98393C18.9454 4.02324 18.8627 4.08038 18.7935 4.15201L11.19 11.7525L11.013 12.99H11.0145ZM20.9145 3.09001C21.1236 3.29896 21.2894 3.54706 21.4026 3.82014C21.5158 4.09321 21.574 4.38591 21.574 4.68151C21.574 4.9771 21.5158 5.2698 21.4026 5.54288C21.2894 5.81596 21.1236 6.06406 20.9145 6.27301L13.137 14.0505C13.0223 14.1656 12.8733 14.2404 12.7125 14.2635L10.2375 14.6175C10.1221 14.6341 10.0045 14.6235 9.89395 14.5867C9.78339 14.5499 9.68293 14.4879 9.60053 14.4055C9.51813 14.3231 9.45607 14.2226 9.41926 14.112C9.38245 14.0015 9.37191 13.8839 9.38848 13.7685L9.74248 11.2935C9.7652 11.1329 9.83942 10.9839 9.95398 10.869L17.733 3.09151C18.1549 2.6697 18.7271 2.43274 19.3237 2.43274C19.9203 2.43274 20.4925 2.6697 20.9145 3.09151V3.09001Z" fill="black"/>
</svg>
