<svg width="24" height="25" viewBox="0 0 24 25" fill="none" xmlns="http://www.w3.org/2000/svg">
<path d="M2.5 4.75C2.5 4.55109 2.57902 4.36032 2.71967 4.21967C2.86032 4.07902 3.05109 4 3.25 4H3.808C4.758 4 5.328 4.639 5.653 5.233C5.87 5.629 6.027 6.088 6.15 6.504C6.18327 6.50137 6.21663 6.50004 6.25 6.5H18.748C19.578 6.5 20.178 7.294 19.95 8.093L18.122 14.502C17.9581 15.0769 17.6114 15.5827 17.1343 15.9428C16.6572 16.303 16.0758 16.4979 15.478 16.498H9.53C8.92749 16.498 8.34165 16.3002 7.86252 15.9349C7.3834 15.5696 7.0375 15.057 6.878 14.476L6.118 11.704L4.858 7.456L4.857 7.448C4.701 6.881 4.555 6.35 4.337 5.954C4.128 5.569 3.96 5.5 3.809 5.5H3.25C3.05109 5.5 2.86032 5.42098 2.71967 5.28033C2.57902 5.13968 2.5 4.94891 2.5 4.75ZM7.573 11.34L8.324 14.079C8.474 14.621 8.967 14.998 9.53 14.998H15.478C15.7497 14.998 16.014 14.9095 16.2309 14.7458C16.4478 14.5821 16.6054 14.3523 16.68 14.091L18.417 8H6.585L7.559 11.287L7.573 11.34ZM11 19.5C11 20.0304 10.7893 20.5391 10.4142 20.9142C10.0391 21.2893 9.53043 21.5 9 21.5C8.46957 21.5 7.96086 21.2893 7.58579 20.9142C7.21071 20.5391 7 20.0304 7 19.5C7 18.9696 7.21071 18.4609 7.58579 18.0858C7.96086 17.7107 8.46957 17.5 9 17.5C9.53043 17.5 10.0391 17.7107 10.4142 18.0858C10.7893 18.4609 11 18.9696 11 19.5ZM9.5 19.5C9.5 19.3674 9.44732 19.2402 9.35355 19.1464C9.25979 19.0527 9.13261 19 9 19C8.86739 19 8.74021 19.0527 8.64645 19.1464C8.55268 19.2402 8.5 19.3674 8.5 19.5C8.5 19.6326 8.55268 19.7598 8.64645 19.8536C8.74021 19.9473 8.86739 20 9 20C9.13261 20 9.25979 19.9473 9.35355 19.8536C9.44732 19.7598 9.5 19.6326 9.5 19.5ZM18 19.5C18 20.0304 17.7893 20.5391 17.4142 20.9142C17.0391 21.2893 16.5304 21.5 16 21.5C15.4696 21.5 14.9609 21.2893 14.5858 20.9142C14.2107 20.5391 14 20.0304 14 19.5C14 18.9696 14.2107 18.4609 14.5858 18.0858C14.9609 17.7107 15.4696 17.5 16 17.5C16.5304 17.5 17.0391 17.7107 17.4142 18.0858C17.7893 18.4609 18 18.9696 18 19.5ZM16.5 19.5C16.5 19.3674 16.4473 19.2402 16.3536 19.1464C16.2598 19.0527 16.1326 19 16 19C15.8674 19 15.7402 19.0527 15.6464 19.1464C15.5527 19.2402 15.5 19.3674 15.5 19.5C15.5 19.6326 15.5527 19.7598 15.6464 19.8536C15.7402 19.9473 15.8674 20 16 20C16.1326 20 16.2598 19.9473 16.3536 19.8536C16.4473 19.7598 16.5 19.6326 16.5 19.5Z" fill="#B8B7B7"/>
</svg>
