<svg width="20" height="21" viewBox="0 0 20 21" fill="none" xmlns="http://www.w3.org/2000/svg">
<path d="M2.14258 7.73129L9.75258 11.6891C9.82891 11.7288 9.91368 11.7496 9.99972 11.7496C10.0858 11.7496 10.1705 11.7288 10.2469 11.6891L17.8569 7.732V14.607C17.8569 15.2 17.63 15.7705 17.2228 16.2015C16.8156 16.6325 16.2589 16.8913 15.6669 16.9249L15.5354 16.9284H4.46401C3.87105 16.9285 3.30056 16.7016 2.86956 16.2944C2.43855 15.8872 2.17972 15.3304 2.14615 14.7384L2.14258 14.607V7.73129ZM4.46401 4.07129H15.5354C16.1284 4.07125 16.6989 4.29811 17.1299 4.70534C17.5609 5.11257 17.8197 5.66928 17.8533 6.26129L17.8569 6.39272V6.52415L9.99972 10.6099L2.14258 6.52415V6.39272C2.14254 5.79976 2.3694 5.22927 2.77663 4.79827C3.18386 4.36727 3.74057 4.10843 4.33258 4.07486L4.46401 4.07129Z" fill="#FEFEFE"/>
</svg>
