<svg width="40" height="40" viewBox="0 0 40 40" fill="none" xmlns="http://www.w3.org/2000/svg">
<circle cx="20" cy="20" r="20" fill="#510000"/>
<path d="M21.0276 10.0012C21.7573 9.99843 22.4871 10.0058 23.2166 10.0232L23.4106 10.0302C23.6346 10.0382 23.8556 10.0482 24.1226 10.0602C25.1866 10.1102 25.9126 10.2782 26.5496 10.5252C27.2096 10.7792 27.7656 11.1232 28.3216 11.6792C28.83 12.1788 29.2234 12.7832 29.4746 13.4502C29.7216 14.0872 29.8896 14.8142 29.9396 15.8782C29.9516 16.1442 29.9616 16.3662 29.9696 16.5902L29.9756 16.7842C29.9934 17.5134 30.001 18.2428 29.9986 18.9722L29.9996 19.7182V21.0282C30.0021 21.758 29.9944 22.4877 29.9766 23.2172L29.9706 23.4112C29.9626 23.6352 29.9526 23.8562 29.9406 24.1232C29.8906 25.1872 29.7206 25.9132 29.4746 26.5502C29.2242 27.218 28.8307 27.8228 28.3216 28.3222C27.8216 28.8306 27.2169 29.224 26.5496 29.4752C25.9126 29.7222 25.1866 29.8902 24.1226 29.9402C23.8556 29.9522 23.6346 29.9622 23.4106 29.9702L23.2166 29.9762C22.4871 29.994 21.7573 30.0017 21.0276 29.9992L20.2816 30.0002H18.9726C18.2429 30.0027 17.5131 29.995 16.7836 29.9772L16.5896 29.9712C16.3522 29.9626 16.1149 29.9526 15.8776 29.9412C14.8136 29.8912 14.0876 29.7212 13.4496 29.4752C12.7823 29.2246 12.1778 28.8311 11.6786 28.3222C11.1696 27.8225 10.7758 27.2178 10.5246 26.5502C10.2776 25.9132 10.1096 25.1872 10.0596 24.1232C10.0485 23.8859 10.0385 23.6486 10.0296 23.4112L10.0246 23.2172C10.0062 22.4877 9.99783 21.758 9.9996 21.0282V18.9722C9.99681 18.2428 10.0041 17.5134 10.0216 16.7842L10.0286 16.5902C10.0366 16.3662 10.0466 16.1442 10.0586 15.8782C10.1086 14.8132 10.2766 14.0882 10.5236 13.4502C10.775 12.7829 11.1696 12.1787 11.6796 11.6802C12.1785 11.171 12.7826 10.7768 13.4496 10.5252C14.0876 10.2782 14.8126 10.1102 15.8776 10.0602L16.5896 10.0302L16.7836 10.0252C17.5128 10.0068 18.2422 9.99847 18.9716 10.0002L21.0276 10.0012ZM19.9996 15.0012C19.3371 14.9919 18.6794 15.1143 18.0646 15.3613C17.4498 15.6083 16.8902 15.9751 16.4184 16.4403C15.9466 16.9055 15.572 17.4598 15.3163 18.071C15.0606 18.6822 14.9289 19.3382 14.9289 20.0007C14.9289 20.6633 15.0606 21.3192 15.3163 21.9305C15.572 22.5417 15.9466 23.096 16.4184 23.5612C16.8902 24.0264 17.4498 24.3931 18.0646 24.6402C18.6794 24.8872 19.3371 25.0096 19.9996 25.0002C21.3257 25.0002 22.5975 24.4734 23.5351 23.5358C24.4728 22.5981 24.9996 21.3263 24.9996 20.0002C24.9996 18.6741 24.4728 17.4024 23.5351 16.4647C22.5975 15.527 21.3257 15.0012 19.9996 15.0012ZM19.9996 17.0012C20.3981 16.9939 20.7941 17.066 21.1644 17.2134C21.5347 17.3608 21.8719 17.5806 22.1564 17.8598C22.4408 18.139 22.6668 18.4721 22.821 18.8396C22.9753 19.2071 23.0548 19.6016 23.0549 20.0002C23.0549 20.3988 22.9756 20.7934 22.8214 21.1609C22.6673 21.5285 22.4414 21.8617 22.1571 22.141C21.8727 22.4203 21.5356 22.6401 21.1653 22.7876C20.7951 22.9352 20.3991 23.0074 20.0006 23.0002C19.205 23.0002 18.4419 22.6842 17.8793 22.1216C17.3167 21.5589 17.0006 20.7959 17.0006 20.0002C17.0006 19.2046 17.3167 18.4415 17.8793 17.8789C18.4419 17.3163 19.205 17.0002 20.0006 17.0002L19.9996 17.0012ZM25.2496 13.5012C24.927 13.5141 24.6219 13.6514 24.3982 13.8842C24.1745 14.117 24.0496 14.4274 24.0496 14.7502C24.0496 15.0731 24.1745 15.3834 24.3982 15.6163C24.6219 15.8491 24.927 15.9863 25.2496 15.9992C25.5811 15.9992 25.8991 15.8675 26.1335 15.6331C26.3679 15.3987 26.4996 15.0808 26.4996 14.7492C26.4996 14.4177 26.3679 14.0998 26.1335 13.8653C25.8991 13.6309 25.5811 13.4992 25.2496 13.4992V13.5012Z" fill="#FEFEFE"/>
</svg>
