<svg width="16" height="18" viewBox="0 0 16 18" fill="none" xmlns="http://www.w3.org/2000/svg">
<path d="M14.767 7.66699C14.767 12.3337 7.76044 16.3337 7.76044 16.3337C7.76044 16.3337 0.753906 12.3337 0.753906 7.66699C0.753906 6.07569 1.49209 4.54957 2.80607 3.42435C4.12005 2.29913 5.90219 1.66699 7.76044 1.66699C9.61869 1.66699 11.4008 2.29913 12.7148 3.42435C14.0288 4.54957 14.767 6.07569 14.767 7.66699Z" stroke="#8F90A6" stroke-width="1.4" stroke-linecap="round" stroke-linejoin="round"/>
<path d="M7.76081 9.66699C9.05067 9.66699 10.0963 8.77156 10.0963 7.66699C10.0963 6.56242 9.05067 5.66699 7.76081 5.66699C6.47094 5.66699 5.42529 6.56242 5.42529 7.66699C5.42529 8.77156 6.47094 9.66699 7.76081 9.66699Z" stroke="#8F90A6" stroke-width="1.4" stroke-linecap="round" stroke-linejoin="round"/>
</svg>
