<svg width="12" height="16" viewBox="0 0 12 16" fill="none" xmlns="http://www.w3.org/2000/svg">
<path d="M5.99998 0C2.69154 0 0 2.69723 0 6.01258C0 11.3438 5.39888 15.5396 5.62874 15.7157C5.84773 15.8834 6.15213 15.8834 6.37106 15.7157C6.60092 15.5396 12 11.3438 12 6.01258C12 2.69719 9.30846 0 5.99998 0ZM10.648 7.33577C9.70915 12.2048 2.28779 12.206 1.35155 7.33641C1.2684 6.9039 1.22249 6.46173 1.22249 6.01258C1.22249 3.37267 3.36536 1.22505 5.99998 1.22505C8.63413 1.22505 10.7775 3.37271 10.7775 6.01258C10.7775 6.46135 10.7314 6.90332 10.648 7.33577Z" fill="#333333"/>
<path d="M6.10676 8.99988C4.46533 8.99988 3.12988 7.6646 3.12988 6.02326C3.12988 4.38183 4.46528 3.04639 6.10676 3.04639C7.74818 3.04639 9.08359 4.38179 9.08359 6.02326C9.08359 7.6646 7.74818 8.99988 6.10676 8.99988ZM6.10676 4.02266C5.00361 4.02266 4.10612 4.92016 4.10612 6.0233C4.10612 7.12632 5.00361 8.02369 6.10676 8.02369C7.20986 8.02369 8.10735 7.12632 8.10735 6.0233C8.10735 4.92012 7.2099 4.02266 6.10676 4.02266Z" fill="#333333"/>
</svg>
