<svg width="97" height="20" viewBox="0 0 97 20" fill="none" xmlns="http://www.w3.org/2000/svg">
<path d="M10.1654 2.42894L11.8222 6.98435L16.6887 7.14363C17.201 7.15956 17.4171 7.80465 17.0089 8.12321L13.1669 11.0938L14.5196 15.7448C14.6637 16.2385 14.1114 16.6367 13.6872 16.35L9.66115 13.6343L5.63511 16.35C5.2109 16.6367 4.65862 16.2385 4.80269 15.7448L6.15538 11.0938L2.29743 8.12321C1.88922 7.81261 2.10533 7.15956 2.61759 7.14363L7.48405 6.98435L9.14089 2.42894C9.30897 1.9511 9.98932 1.9511 10.1654 2.42894Z" fill="#510000"/>
<path d="M48.5853 2.42894L50.2422 6.98435L55.1086 7.14363C55.6209 7.15956 55.837 7.80465 55.4288 8.12321L51.5868 11.0938L52.9395 15.7448C53.0836 16.2385 52.5313 16.6367 52.1071 16.35L48.0811 13.6343L44.055 16.35C43.6308 16.6367 43.0785 16.2385 43.2226 15.7448L44.5753 11.0938L40.7173 8.12321C40.3091 7.81261 40.5253 7.15956 41.0375 7.14363L45.904 6.98435L47.5608 2.42894C47.7289 1.9511 48.4092 1.9511 48.5853 2.42894Z" fill="#510000"/>
<path d="M29.3754 2.42894L31.0322 6.98435L35.8987 7.14363C36.4109 7.15956 36.627 7.80465 36.2188 8.12321L32.3769 11.0938L33.7296 15.7448C33.8736 16.2385 33.3214 16.6367 32.8971 16.35L28.8711 13.6343L24.8451 16.35C24.4209 16.6367 23.8686 16.2385 24.0127 15.7448L25.3653 11.0938L21.5074 8.12321C21.0992 7.81261 21.3153 7.15956 21.8275 7.14363L26.694 6.98435L28.3508 2.42894C28.5189 1.9511 29.1993 1.9511 29.3754 2.42894Z" fill="#510000"/>
<path d="M67.7948 2.42894L69.4516 6.98435L74.3181 7.14363C74.8304 7.15956 75.0465 7.80465 74.6383 8.12321L70.7963 11.0938L72.149 15.7448C72.2931 16.2385 71.7408 16.6367 71.3166 16.35L67.2905 13.6343L63.2645 16.35C62.8403 16.6367 62.288 16.2385 62.4321 15.7448L63.7848 11.0938L59.9268 8.12321C59.5186 7.81261 59.7347 7.15956 60.247 7.14363L65.1134 6.98435L66.7703 2.42894C66.9384 1.9511 67.6187 1.9511 67.7948 2.42894Z" fill="#510000"/>
<path d="M87.0048 2.42894L88.6616 6.98435L93.5281 7.14363C94.0403 7.15956 94.2564 7.80465 93.8482 8.12321L90.0063 11.0938L91.359 15.7448C91.503 16.2385 90.9508 16.6367 90.5265 16.35L86.5005 13.6343L82.4745 16.35C82.0503 16.6367 81.498 16.2385 81.642 15.7448L82.9947 11.0938L79.1368 8.12321C78.7286 7.81261 78.9447 7.15956 79.4569 7.14363L84.3234 6.98435L85.9802 2.42894C86.1483 1.9511 86.8287 1.9511 87.0048 2.42894Z" fill="#2B67F6" fill-opacity="0.16"/>
</svg>
