<svg width="44" height="44" viewBox="0 0 44 44" fill="none" xmlns="http://www.w3.org/2000/svg">
<circle cx="22" cy="22" r="22" fill="#F4F7FF"/>
<path fill-rule="evenodd" clip-rule="evenodd" d="M11.958 25.7954C10.7041 24.3899 10 22.4902 10 20.5095C10 18.5179 10.7115 16.6072 11.979 15.1989C13.2464 13.7906 14.966 13 16.7585 13C18.551 13 20.2705 13.7906 21.538 15.1989C21.7849 15.4733 22.2151 15.4733 22.462 15.1989C23.7295 13.7906 25.4478 13 27.2403 13C29.034 13 30.7523 13.7906 32.0198 15.1989C33.2872 16.6072 34 18.5179 34 20.5095C34 22.4902 33.2959 24.3899 32.0408 25.7954L22.8721 36.5827C22.6461 36.849 22.3298 37 22 37C21.6702 37 21.3539 36.849 21.1279 36.5827L11.958 25.7954ZM14.3805 24.7624C18.374 29.4598 25.6257 29.4595 29.6188 24.7618L30.2989 23.9616L30.3237 23.9342C31.1402 23.0255 31.5998 21.7943 31.5998 20.5095C31.5998 19.2248 31.1402 17.9935 30.3237 17.0849C29.5059 16.1762 28.3965 15.6656 27.2403 15.6656C26.0852 15.6656 24.9759 16.1762 24.1581 17.0849L22.8487 18.5412C22.3793 19.0614 21.6195 19.0614 21.1513 18.5412L19.8406 17.0849C19.0241 16.1762 17.9148 15.6656 16.7585 15.6656C15.6022 15.6656 14.4941 16.1762 13.6763 17.0849C12.8586 17.9935 12.4002 19.2248 12.4002 20.5095C12.4002 21.7943 12.8586 23.0255 13.6763 23.9342C13.685 23.9438 13.6924 23.952 13.6998 23.9616L14.3805 24.7624Z" fill="#6B6F7B"/>
</svg>
