<svg width="20" height="20" viewBox="0 0 20 20" fill="none" xmlns="http://www.w3.org/2000/svg">
<path d="M9.12809 16.3219L9.12737 16.3213C6.97148 14.3663 5.22259 12.7794 4.00665 11.2928C2.79646 9.81324 2.1665 8.49409 2.1665 7.08333C2.1665 4.79281 3.95931 3 6.24984 3C7.54844 3 8.80262 3.60697 9.61916 4.56584L9.99984 5.01287L10.3805 4.56584C11.1971 3.60697 12.4512 3 13.7498 3C16.0404 3 17.8332 4.79281 17.8332 7.08333C17.8332 8.4941 17.2032 9.81327 15.9929 11.294C14.778 12.7804 13.0312 14.3678 10.8779 16.3245L10.873 16.329L10.8719 16.33L10.0011 17.1167L9.12809 16.3219Z" stroke="#B8B7B7"/>
</svg>
