<svg width="30" height="30" viewBox="0 0 30 30" fill="none" xmlns="http://www.w3.org/2000/svg">
<path d="M13.5241 24.6678L13.5234 24.6671C10.2946 21.7392 7.65505 19.345 5.81671 17.0975C3.98412 14.857 3 12.8233 3 10.625C3 7.05114 5.80114 4.25 9.375 4.25C11.3986 4.25 13.3486 5.19447 14.6193 6.68667L15 7.1337L15.3807 6.68667C16.6514 5.19447 18.6014 4.25 20.625 4.25C24.1989 4.25 27 7.05114 27 10.625C27 12.8233 26.0159 14.857 24.1832 17.0992C22.3491 19.3431 19.7176 21.7344 16.499 24.6592L16.4773 24.679L16.4762 24.68L15.0013 26.0125L13.5241 24.6678Z" stroke="#0A0A0A"/>
</svg>
