<svg width="20" height="20" viewBox="0 0 20 20" fill="none" xmlns="http://www.w3.org/2000/svg">
<path d="M9.12858 16.3219L9.12786 16.3213C6.97197 14.3663 5.22308 12.7794 4.00714 11.2928C2.79695 9.81324 2.16699 8.49409 2.16699 7.08333C2.16699 4.79281 3.9598 3 6.25033 3C7.54893 3 8.80311 3.60697 9.61965 4.56584L10.0003 5.01287L10.381 4.56584C11.1975 3.60697 12.4517 3 13.7503 3C16.0408 3 17.8337 4.79281 17.8337 7.08333C17.8337 8.4941 17.2037 9.81327 15.9934 11.294C14.7785 12.7804 13.0317 14.3678 10.8784 16.3245L10.8735 16.329L10.8724 16.33L10.0016 17.1167L9.12858 16.3219Z" stroke="#B8B7B7"/>
</svg>
