<svg width="20" height="20" viewBox="0 0 20 20" fill="none" xmlns="http://www.w3.org/2000/svg">
<g clip-path="url(#clip0_2502_2339)">
<path fill-rule="evenodd" clip-rule="evenodd" d="M10 6.66671C9.11596 6.66671 8.26811 7.0179 7.64299 7.64302C7.01787 8.26814 6.66668 9.11599 6.66668 10C6.66668 10.8841 7.01787 11.7319 7.64299 12.3571C8.26811 12.9822 9.11596 13.3334 10 13.3334C10.8841 13.3334 11.7319 12.9822 12.357 12.3571C12.9822 11.7319 13.3333 10.8841 13.3333 10C13.3333 9.11599 12.9822 8.26814 12.357 7.64302C11.7319 7.0179 10.8841 6.66671 10 6.66671ZM8.8215 8.82153C9.13406 8.50897 9.55798 8.33337 10 8.33337C10.442 8.33337 10.866 8.50897 11.1785 8.82153C11.4911 9.13409 11.6667 9.55801 11.6667 10C11.6667 10.4421 11.4911 10.866 11.1785 11.1786C10.866 11.4911 10.442 11.6667 10 11.6667C9.55798 11.6667 9.13406 11.4911 8.8215 11.1786C8.50894 10.866 8.33334 10.4421 8.33334 10C8.33334 9.55801 8.50894 9.13409 8.8215 8.82153Z" fill="#757575"/>
<path fill-rule="evenodd" clip-rule="evenodd" d="M9.15084 0.833374C8.7723 0.833374 8.44132 1.08851 8.34496 1.45458L7.92266 3.05891L6.58096 3.62451L5.55392 2.71077C5.22416 2.4174 4.72285 2.43202 4.41075 2.74412L2.74409 4.41078C2.44217 4.7127 2.4173 5.19398 2.68648 5.52541L3.58659 6.63367L3.03462 7.9916L1.47722 8.3552C1.10011 8.44323 0.833344 8.77946 0.833344 9.16671V10.8334C0.833344 11.2091 1.08483 11.5384 1.44736 11.6373L3.05709 12.0765L3.62421 13.4218L2.71139 14.4454C2.41738 14.7751 2.43173 15.2769 2.74409 15.5893L4.41075 17.256C4.71308 17.5583 5.19515 17.5828 5.52655 17.3126L6.63441 16.4095L7.95897 16.9544L8.3587 18.5374C8.45214 18.9074 8.78502 19.1667 9.16668 19.1667H10.8333C11.2148 19.1667 11.5476 18.9076 11.6412 18.5378L12.042 16.9541L13.4108 16.3871C13.5486 16.5026 13.7066 16.6383 13.8638 16.7752C14.02 16.9112 14.1652 17.0394 14.2715 17.1337C14.3245 17.1808 14.3678 17.2193 14.3976 17.246L14.4429 17.2864C14.7724 17.5821 15.2762 17.569 15.5893 17.256L17.2559 15.5893C17.5626 15.2826 17.5828 14.7919 17.3023 14.4611L16.3945 13.3906L16.9562 12.0339L18.5429 11.6216C18.9102 11.5261 19.1667 11.1946 19.1667 10.815V9.16671C19.1667 8.78561 18.9081 8.45306 18.5388 8.3591L16.9619 7.95791L16.4016 6.60449L17.3031 5.538C17.5828 5.20712 17.5623 4.71713 17.2559 4.41078L15.5893 2.74412C15.2817 2.43652 14.7892 2.41727 14.4586 2.69991L13.3999 3.60477L11.9988 3.0287L11.5851 1.45485C11.4889 1.08865 11.1578 0.833374 10.7792 0.833374H9.15084ZM15.5346 14.9536L14.9645 15.5237L14.9583 15.5182C14.6505 15.2503 14.2541 14.9111 14.0305 14.7513C13.7965 14.584 13.4927 14.5492 13.227 14.6593L11.0178 15.5743C10.7746 15.675 10.5934 15.8847 10.5288 16.1398L10.1846 17.5H9.81574L9.47215 16.1393C9.40751 15.8834 9.22538 15.6731 8.9812 15.5727L6.80953 14.6794C6.52675 14.563 6.20297 14.6109 5.96597 14.8041L5.05696 15.5451L4.4791 14.9673L5.21863 14.138C5.43272 13.8979 5.48952 13.5561 5.36457 13.2597L4.4354 11.0555C4.33599 10.8197 4.13373 10.6426 3.88683 10.5753L2.50001 10.1969V9.8279L3.83363 9.51655C4.09709 9.45504 4.3143 9.26947 4.41617 9.01884L5.31617 6.80467C5.43064 6.52306 5.38268 6.20146 5.19104 5.9655L4.45394 5.05795L5.03341 4.47848L5.8661 5.21931C6.10616 5.43288 6.44763 5.48941 6.74371 5.3646L8.94788 4.43543C9.18612 4.33501 9.36425 4.12969 9.43006 3.87967L9.79321 2.50004H10.1366L10.4924 3.85357C10.5588 4.10621 10.7398 4.3131 10.9815 4.41244L13.2373 5.33994C13.5265 5.45885 13.8579 5.40584 14.0956 5.20267L14.9557 4.46754L15.5355 5.04738L14.8011 5.91625C14.5998 6.15435 14.5483 6.48488 14.6675 6.77294L15.5817 8.98128C15.6822 9.22414 15.8915 9.40534 16.1462 9.47015L17.5 9.81457V10.1706L16.1354 10.5252C15.8825 10.5909 15.675 10.7715 15.5751 11.0129L14.6601 13.2229C14.5406 13.5114 14.5925 13.8425 14.7944 14.0807L15.5346 14.9536Z" fill="#757575"/>
</g>
<defs>
<clipPath id="clip0_2502_2339">
<rect width="20" height="20" fill="white"/>
</clipPath>
</defs>
</svg>
