<svg width="24" height="24" viewBox="0 0 24 24" fill="none" xmlns="http://www.w3.org/2000/svg">
<path d="M5.70002 18.29C5.79254 18.3827 5.90242 18.4563 6.0234 18.5065C6.14437 18.5566 6.27405 18.5825 6.40502 18.5825C6.53599 18.5825 6.66567 18.5566 6.78665 18.5065C6.90762 18.4563 7.01751 18.3827 7.11002 18.29L12 13.41L16.89 18.3C16.9826 18.3926 17.0925 18.466 17.2135 18.5161C17.3344 18.5663 17.4641 18.592 17.595 18.592C17.726 18.592 17.8556 18.5663 17.9766 18.5161C18.0975 18.466 18.2074 18.3926 18.3 18.3C18.3926 18.2074 18.466 18.0975 18.5161 17.9766C18.5663 17.8556 18.592 17.726 18.592 17.595C18.592 17.4641 18.5663 17.3344 18.5161 17.2135C18.466 17.0925 18.3926 16.9826 18.3 16.89L13.41 12L18.3 7.11002C18.3926 7.01744 18.466 6.90753 18.5161 6.78656C18.5663 6.6656 18.592 6.53595 18.592 6.40502C18.592 6.27409 18.5663 6.14444 18.5161 6.02348C18.466 5.90251 18.3926 5.7926 18.3 5.70002C18.2074 5.60744 18.0975 5.534 17.9766 5.48389C17.8556 5.43379 17.726 5.408 17.595 5.408C17.4641 5.408 17.3344 5.43379 17.2135 5.48389C17.0925 5.534 16.9826 5.60744 16.89 5.70002L12 10.59L7.11002 5.70002C7.01744 5.60744 6.90753 5.534 6.78656 5.48389C6.6656 5.43379 6.53595 5.408 6.40502 5.408C6.27409 5.408 6.14444 5.43379 6.02348 5.48389C5.90251 5.534 5.7926 5.60744 5.70002 5.70002C5.60744 5.7926 5.534 5.90251 5.48389 6.02348C5.43379 6.14444 5.408 6.27409 5.408 6.40502C5.408 6.53595 5.43379 6.6656 5.48389 6.78656C5.534 6.90753 5.60744 7.01744 5.70002 7.11002L10.59 12L5.70002 16.89C5.32002 17.27 5.32002 17.91 5.70002 18.29Z" fill="#222222"/>
</svg>
