<svg width="16" height="16" viewBox="0 0 16 16" fill="none" xmlns="http://www.w3.org/2000/svg">
<path d="M11.08 1.99336C11.0026 1.91575 10.9106 1.85418 10.8094 1.81217C10.7081 1.77016 10.5996 1.74854 10.49 1.74854C10.3804 1.74854 10.2719 1.77016 10.1706 1.81217C10.0694 1.85418 9.97741 1.91575 9.9 1.99336L4.36 7.53336C4.2982 7.59503 4.24917 7.66829 4.21571 7.74894C4.18226 7.82959 4.16504 7.91605 4.16504 8.00336C4.16504 8.09067 4.18226 8.17713 4.21571 8.25777C4.24917 8.33842 4.2982 8.41168 4.36 8.47336L9.9 14.0134C10.2267 14.34 10.7533 14.34 11.08 14.0134C11.4067 13.6867 11.4067 13.16 11.08 12.8334L6.25334 8.00002L11.0867 3.16669C11.4067 2.84669 11.4067 2.31336 11.08 1.99336Z" fill="black"/>
</svg>
