<svg width="48" height="48" viewBox="0 0 48 48" fill="none" xmlns="http://www.w3.org/2000/svg">
<path d="M12.75 42L31.875 24L40.875 33M12.75 42H35.25C38.9779 42 42 38.9779 42 35.25V24M12.75 42C9.02208 42 6 38.9779 6 35.25V12.75C6 9.02208 9.02208 6 12.75 6H27.375M33 10.5798L37.6018 6M37.6018 6L42 10.3728M37.6018 6V17.25M19.5 16.125C19.5 17.989 17.989 19.5 16.125 19.5C14.261 19.5 12.75 17.989 12.75 16.125C12.75 14.261 14.261 12.75 16.125 12.75C17.989 12.75 19.5 14.261 19.5 16.125Z" stroke="#45A9EA" stroke-width="2" stroke-linecap="round" stroke-linejoin="round"/>
</svg>
