<svg width="31" height="24" viewBox="0 0 31 24" fill="none" xmlns="http://www.w3.org/2000/svg">
<path d="M8.04385 21L20.1096 12L25.7876 16.5M8.04385 21H22.2389C24.5908 21 26.4974 19.489 26.4974 17.625V12M8.04385 21C5.69194 21 3.78534 19.489 3.78534 17.625V6.375C3.78534 4.51104 5.69194 3 8.04385 3H17.2706M20.8194 5.28991L23.7226 3M23.7226 3L26.4974 5.1864M23.7226 3V8.625M12.3024 8.0625C12.3024 8.99448 11.3491 9.75 10.1731 9.75C8.99715 9.75 8.04385 8.99448 8.04385 8.0625C8.04385 7.13052 8.99715 6.375 10.1731 6.375C11.3491 6.375 12.3024 7.13052 12.3024 8.0625Z" stroke="#45A9EA" stroke-width="2" stroke-linecap="round" stroke-linejoin="round"/>
</svg>
