<svg width="16" height="16" viewBox="0 0 16 16" fill="none" xmlns="http://www.w3.org/2000/svg">
<path d="M12.0013 14.3334C11.5391 14.3334 11.1456 14.1711 10.8207 13.8467C10.4958 13.5231 10.3333 13.1298 10.3333 12.6667C10.3333 12.5778 10.3411 12.486 10.3567 12.3914C10.3718 12.2962 10.3947 12.2069 10.4253 12.1234L5.264 9.08202C5.10089 9.26602 4.91111 9.40935 4.69467 9.51202C4.47867 9.61513 4.24711 9.66669 4 9.66669C3.53689 9.66669 3.14356 9.50491 2.82 9.18135C2.49556 8.85735 2.33333 8.46402 2.33333 8.00135C2.33333 7.53913 2.49556 7.14558 2.82 6.82069C3.14311 6.4958 3.53644 6.33335 4 6.33335C4.24711 6.33335 4.47867 6.38491 4.69467 6.48802C4.91111 6.59069 5.10089 6.73402 5.264 6.91802L10.4253 3.87669C10.3947 3.79313 10.3718 3.7038 10.3567 3.60869C10.3411 3.51402 10.3333 3.42224 10.3333 3.33335C10.3333 2.87024 10.4953 2.47691 10.8193 2.15335C11.1429 1.82891 11.536 1.66669 11.9987 1.66669C12.4609 1.66669 12.8544 1.82869 13.1793 2.15269C13.5042 2.47624 13.6667 2.86935 13.6667 3.33202C13.6667 3.79424 13.5044 4.1878 13.18 4.51269C12.8564 4.83758 12.4631 5.00002 12 5.00002C11.7529 5.00002 11.5213 4.94846 11.3053 4.84535C11.0889 4.74269 10.8991 4.59935 10.736 4.41535L5.57467 7.45669C5.60533 7.54024 5.62822 7.62913 5.64333 7.72335C5.65889 7.81802 5.66667 7.90935 5.66667 7.99735C5.66667 8.08535 5.65889 8.17758 5.64333 8.27402C5.62822 8.37002 5.60533 8.4598 5.57467 8.54335L10.736 11.5847C10.8991 11.4007 11.0889 11.2574 11.3053 11.1547C11.5213 11.0516 11.7529 11 12 11C12.4631 11 12.8564 11.162 13.18 11.486C13.5044 11.8096 13.6667 12.2027 13.6667 12.6654C13.6667 13.1276 13.5049 13.5211 13.1813 13.846C12.8573 14.1709 12.464 14.3334 12.0013 14.3334ZM12 4.33335C12.2742 4.33335 12.5096 4.23535 12.706 4.03935C12.902 3.84291 13 3.60758 13 3.33335C13 3.05913 12.902 2.8238 12.706 2.62735C12.5096 2.43135 12.2742 2.33335 12 2.33335C11.7258 2.33335 11.4904 2.43135 11.294 2.62735C11.098 2.8238 11 3.05913 11 3.33335C11 3.60758 11.098 3.84291 11.294 4.03935C11.4904 4.23535 11.7258 4.33335 12 4.33335ZM4 9.00002C4.27422 9.00002 4.50956 8.90202 4.706 8.70602C4.902 8.50958 5 8.27424 5 8.00002C5 7.7258 4.902 7.49047 4.706 7.29402C4.50956 7.09802 4.27422 7.00002 4 7.00002C3.72578 7.00002 3.49044 7.09802 3.294 7.29402C3.098 7.49047 3 7.7258 3 8.00002C3 8.27424 3.098 8.50958 3.294 8.70602C3.49044 8.90202 3.72578 9.00002 4 9.00002ZM12 13.6667C12.2742 13.6667 12.5096 13.5687 12.706 13.3727C12.902 13.1762 13 12.9409 13 12.6667C13 12.3925 12.902 12.1571 12.706 11.9607C12.5096 11.7647 12.2742 11.6667 12 11.6667C11.7258 11.6667 11.4904 11.7647 11.294 11.9607C11.098 12.1571 11 12.3925 11 12.6667C11 12.9409 11.098 13.1762 11.294 13.3727C11.4904 13.5687 11.7258 13.6667 12 13.6667Z" fill="#5E5E5E"/>
</svg>
