<svg width="24" height="24" viewBox="0 0 24 24" fill="none" xmlns="http://www.w3.org/2000/svg">
<path fill-rule="evenodd" clip-rule="evenodd" d="M12.707 15.7071C12.5194 15.8946 12.2651 15.9999 12 15.9999C11.7348 15.9999 11.4805 15.8946 11.293 15.7071L5.63598 10.0501C5.54047 9.95785 5.46428 9.84751 5.41188 9.7255C5.35947 9.6035 5.33188 9.47228 5.33073 9.3395C5.32957 9.20672 5.35487 9.07504 5.40516 8.95215C5.45544 8.82925 5.52969 8.7176 5.62358 8.6237C5.71747 8.52981 5.82913 8.45556 5.95202 8.40528C6.07492 8.355 6.2066 8.32969 6.33938 8.33085C6.47216 8.332 6.60338 8.35959 6.72538 8.412C6.84739 8.46441 6.95773 8.54059 7.04998 8.6361L12 13.5861L16.95 8.6361C17.1386 8.45394 17.3912 8.35315 17.6534 8.35542C17.9156 8.3577 18.1664 8.46287 18.3518 8.64828C18.5372 8.83369 18.6424 9.0845 18.6447 9.3467C18.6469 9.60889 18.5461 9.8615 18.364 10.0501L12.707 15.7071Z" fill="#222222" fill-opacity="0.4"/>
</svg>
