<svg width="24" height="24" viewBox="0 0 24 24" fill="none" xmlns="http://www.w3.org/2000/svg">
<path d="M12.673 1.61192L20.8 8.99992H17.827L12 3.70292L6 9.15792V18.9999H11V20.9999H5C4.73478 20.9999 4.48043 20.8946 4.29289 20.707C4.10536 20.5195 4 20.2651 4 19.9999V10.9999H1L11.327 1.61192C11.5111 1.4444 11.7511 1.35156 12 1.35156C12.2489 1.35156 12.4889 1.4444 12.673 1.61192ZM14 10.9999H23V17.9999H14V10.9999ZM16 12.9999V15.9999H21V12.9999H16ZM24 20.9999H13V18.9999H24V20.9999Z" fill="black" fill-opacity="0.5"/>
</svg>
