<svg width="50" height="50" viewBox="0 0 50 50" fill="none" xmlns="http://www.w3.org/2000/svg">
<path d="M6.25 29.1667V20.8334C6.25 12.9772 6.25 9.048 8.69167 6.60841C11.1312 4.16675 15.0604 4.16675 22.9167 4.16675H27.0833C34.9396 4.16675 38.8687 4.16675 41.3083 6.60841C42.6708 7.96883 43.2729 9.79175 43.5375 12.5001M43.75 20.8334V29.1667C43.75 37.023 43.75 40.9522 41.3083 43.3917C38.8687 45.8334 34.9396 45.8334 27.0833 45.8334H22.9167C15.0604 45.8334 11.1312 45.8334 8.69167 43.3917C7.32917 42.0313 6.72708 40.2084 6.4625 37.5001M16.6667 29.1667H27.0833M16.6667 20.8334H18.75M33.3333 20.8334H25" stroke="black" stroke-width="1.5" stroke-linecap="round"/>
</svg>
