<svg width="24" height="24" viewBox="0 0 24 24" fill="none" xmlns="http://www.w3.org/2000/svg">
<path fill-rule="evenodd" clip-rule="evenodd" d="M5.73303 2.04305C6.95003 0.833052 8.95403 1.04805 9.97303 2.41005L11.235 4.09405C12.065 5.20205 11.991 6.75005 11.006 7.72905L10.768 7.96705C10.7412 8.06698 10.7384 8.17186 10.76 8.27305C10.823 8.68105 11.164 9.54505 12.592 10.9651C14.02 12.3851 14.89 12.7251 15.304 12.7891C15.4082 12.8112 15.5162 12.8081 15.619 12.7801L16.027 12.3741C16.903 11.5041 18.247 11.3411 19.331 11.9301L21.241 12.9701C22.878 13.8581 23.291 16.0821 21.951 17.4151L20.53 18.8271C20.082 19.2721 19.48 19.6431 18.746 19.7121C16.936 19.8811 12.719 19.6651 8.28603 15.2581C4.14903 11.1441 3.35503 7.55605 3.25403 5.78805C3.20403 4.89405 3.62603 4.13805 4.16403 3.60405L5.73303 2.04305ZM8.77303 3.30905C8.26603 2.63205 7.32203 2.57805 6.79003 3.10705L5.22003 4.66705C4.89003 4.99505 4.73203 5.35705 4.75203 5.70305C4.83203 7.10805 5.47203 10.3451 9.34403 14.1951C13.406 18.2331 17.157 18.3541 18.607 18.2181C18.903 18.1911 19.197 18.0371 19.472 17.7641L20.892 16.3511C21.47 15.7771 21.343 14.7311 20.525 14.2871L18.615 13.2481C18.087 12.9621 17.469 13.0561 17.085 13.4381L16.63 13.8911L16.1 13.3591C16.63 13.8911 16.629 13.8921 16.628 13.8921L16.627 13.8941L16.624 13.8971L16.617 13.9031L16.602 13.9171C16.5595 13.9559 16.514 13.9913 16.466 14.0231C16.386 14.0761 16.28 14.1351 16.147 14.1841C15.877 14.2851 15.519 14.3391 15.077 14.2711C14.21 14.1381 13.061 13.5471 11.534 12.0291C10.008 10.5111 9.41203 9.36905 9.27803 8.50305C9.20903 8.06105 9.26403 7.70305 9.36603 7.43305C9.42259 7.28132 9.50293 7.13955 9.60403 7.01305L9.63603 6.97805L9.65003 6.96305L9.65603 6.95705L9.65903 6.95405L9.66103 6.95205L9.94903 6.66605C10.377 6.23905 10.437 5.53205 10.034 4.99305L8.77303 3.30905Z" fill="#222222" fill-opacity="0.5"/>
</svg>
