<svg width="16" height="16" viewBox="0 0 16 16" fill="none" xmlns="http://www.w3.org/2000/svg">
<path fill-rule="evenodd" clip-rule="evenodd" d="M8.00036 0.833252C7.16051 0.833252 6.35506 1.16688 5.76119 1.76075C5.16733 2.35461 4.8337 3.16007 4.8337 3.99992C4.8337 4.83977 5.16733 5.64522 5.76119 6.23909C6.35506 6.83295 7.16051 7.16658 8.00036 7.16658C8.84021 7.16658 9.64567 6.83295 10.2395 6.23909C10.8334 5.64522 11.167 4.83977 11.167 3.99992C11.167 3.16007 10.8334 2.35461 10.2395 1.76075C9.64567 1.16688 8.84021 0.833252 8.00036 0.833252ZM5.8337 3.99992C5.8337 3.42528 6.06197 2.87418 6.4683 2.46785C6.87463 2.06152 7.42573 1.83325 8.00036 1.83325C8.575 1.83325 9.1261 2.06152 9.53243 2.46785C9.93876 2.87418 10.167 3.42528 10.167 3.99992C10.167 4.57455 9.93876 5.12565 9.53243 5.53198C9.1261 5.93831 8.575 6.16658 8.00036 6.16658C7.42573 6.16658 6.87463 5.93831 6.4683 5.53198C6.06197 5.12565 5.8337 4.57455 5.8337 3.99992ZM8.00036 8.16658C6.45836 8.16658 5.03703 8.51725 3.98436 9.10925C2.94703 9.69325 2.16703 10.5773 2.16703 11.6666V11.7346C2.16636 12.5093 2.1657 13.4813 3.01836 14.1759C3.4377 14.5173 4.02503 14.7606 4.81836 14.9206C5.61303 15.0819 6.6497 15.1666 8.00036 15.1666C9.35103 15.1666 10.387 15.0819 11.183 14.9206C11.9764 14.7606 12.563 14.5173 12.983 14.1759C13.8357 13.4813 13.8344 12.5093 13.8337 11.7346V11.6666C13.8337 10.5773 13.0537 9.69325 12.017 9.10925C10.9637 8.51725 9.54303 8.16658 8.00036 8.16658ZM3.16703 11.6666C3.16703 11.0993 3.5817 10.4833 4.47436 9.98125C5.3517 9.48792 6.59703 9.16658 8.00103 9.16658C9.4037 9.16658 10.649 9.48792 11.5264 9.98125C12.4197 10.4833 12.8337 11.0993 12.8337 11.6666C12.8337 12.5386 12.807 13.0293 12.351 13.3999C12.1044 13.6013 11.691 13.7979 10.9844 13.9406C10.2797 14.0833 9.31636 14.1666 8.00036 14.1666C6.68436 14.1666 5.72036 14.0833 5.01636 13.9406C4.3097 13.7979 3.89636 13.6013 3.6497 13.4006C3.1937 13.0293 3.16703 12.5386 3.16703 11.6666Z" fill="#888686"/>
</svg>
