<svg width="24" height="24" viewBox="0 0 24 24" fill="none" xmlns="http://www.w3.org/2000/svg">
<path d="M12 2C12.9889 2 13.9556 2.29324 14.7779 2.84265C15.6001 3.39206 16.241 4.17295 16.6194 5.08658C16.9978 6.00021 17.0969 7.00555 16.9039 7.97545C16.711 8.94536 16.2348 9.83627 15.5355 10.5355C14.8363 11.2348 13.9454 11.711 12.9755 11.9039C12.0055 12.0969 11.0002 11.9978 10.0866 11.6194C9.17295 11.241 8.39206 10.6001 7.84265 9.77785C7.29324 8.95561 7 7.98891 7 7L7.005 6.783C7.06092 5.49575 7.61161 4.27978 8.54222 3.38866C9.47284 2.49754 10.7115 2.00007 12 2ZM14 14C15.3261 14 16.5979 14.5268 17.5355 15.4645C18.4732 16.4021 19 17.6739 19 19V20C19 20.5304 18.7893 21.0391 18.4142 21.4142C18.0391 21.7893 17.5304 22 17 22H7C6.46957 22 5.96086 21.7893 5.58579 21.4142C5.21071 21.0391 5 20.5304 5 20V19C5 17.6739 5.52678 16.4021 6.46447 15.4645C7.40215 14.5268 8.67392 14 10 14H14Z" fill="#222222" fill-opacity="0.4"/>
</svg>
