<svg width="745" height="80" viewBox="0 0 745 80" fill="none" xmlns="http://www.w3.org/2000/svg">
<path d="M2 61.6514C13.729 59.1381 37.1166 77.4237 53.1233 69.3811C73.1316 59.3278 86.8375 9.06559 153.072 21.6321C219.307 34.1987 213.71 22.1343 235.788 25.6531C253.451 28.4681 278.668 64.6675 293.846 73.2128C305.575 81.0878 329.698 77.9278 350.672 51.7893C376.89 19.1163 436.26 25.6531 459.812 25.6531C484.7 25.6531 518.274 1.02464 532.763 2.02996C547.252 3.03529 594.059 54.3044 649.944 31.1819C694.653 12.684 713.792 39.5341 743 52.1006" stroke="url(#paint0_linear_529_1189)" stroke-width="4" stroke-linecap="round"/>
<defs>
<linearGradient id="paint0_linear_529_1189" x1="2" y1="63.5" x2="743" y2="77" gradientUnits="userSpaceOnUse">
<stop stop-color="#FFD15B"/>
<stop offset="1" stop-color="#F09562"/>
</linearGradient>
</defs>
</svg>
