<svg width="24" height="22" viewBox="0 0 24 22" fill="none" xmlns="http://www.w3.org/2000/svg">
<path fill-rule="evenodd" clip-rule="evenodd" d="M1.95799 11.3714C0.704128 10.1223 0 8.43402 0 6.67378C0 4.90378 0.711538 3.20576 1.97899 1.9542C3.24644 0.702634 4.96602 0 6.75849 0C8.55095 0 10.2705 0.702634 11.538 1.9542L12 2.41042L12.462 1.9542C13.7295 0.702634 15.4478 0 17.2403 0C19.034 0 20.7523 0.702634 22.0198 1.9542C23.2872 3.20576 24 4.90378 24 6.67378C24 8.43402 23.2959 10.1223 22.0408 11.3714L12.8721 20.9582C12.6461 21.1949 12.3298 21.329 12 21.329C11.6702 21.329 11.3539 21.1949 11.1279 20.9582L1.95799 11.3714ZM12 18.4185L20.2989 9.7417L20.3237 9.71731C21.1402 8.90977 21.5998 7.81556 21.5998 6.67378C21.5998 5.53201 21.1402 4.43781 20.3237 3.63027C19.5059 2.82273 18.3965 2.36894 17.2403 2.36894C16.0852 2.36894 14.9759 2.82273 14.1581 3.63027L12.8487 4.92452C12.3793 5.38685 11.6195 5.38685 11.1513 4.92452L9.84063 3.63027C9.02408 2.82273 7.91476 2.36894 6.75849 2.36894C5.60222 2.36894 4.49413 2.82273 3.67634 3.63027C2.85855 4.43781 2.40024 5.53201 2.40024 6.67378C2.40024 7.81556 2.85855 8.90977 3.67634 9.71731C3.68499 9.72585 3.6924 9.73316 3.69981 9.7417L12 18.4185Z" fill="#6B6F7B"/>
</svg>
