<svg width="16" height="16" viewBox="0 0 16 16" fill="none" xmlns="http://www.w3.org/2000/svg">
<g clip-path="url(#clip0_2501_924)">
<path d="M11.7278 12.528C10.6814 13.5755 9.30423 14.2278 7.83084 14.3738C6.35744 14.5198 4.87901 14.1504 3.64742 13.3286C2.41584 12.5067 1.50729 11.2833 1.07658 9.86675C0.645874 8.45017 0.719648 6.92807 1.28534 5.55979C1.85102 4.1915 2.87362 3.06168 4.17892 2.36281C5.48421 1.66394 6.99144 1.43926 8.44381 1.72706C9.89618 2.01485 11.2038 2.79731 12.144 3.94113C13.0842 5.08494 13.5986 6.51935 13.5998 7.99996H11.9998C12.0008 6.8894 11.6166 5.81286 10.9128 4.95379C10.209 4.09472 9.22912 3.50628 8.14008 3.28873C7.05104 3.07118 5.92026 3.23799 4.94042 3.76074C3.96059 4.28348 3.19233 5.12982 2.76657 6.15552C2.3408 7.18122 2.28388 8.32282 2.60549 9.38579C2.9271 10.4488 3.60736 11.3673 4.53033 11.985C5.4533 12.6026 6.56188 12.8811 7.66716 12.7729C8.77244 12.6648 9.80603 12.1768 10.5918 11.392L11.7278 12.528ZM9.5998 7.99996H15.9998L12.7998 11.2L9.5998 7.99996Z" fill="white"/>
</g>
<defs>
<clipPath id="clip0_2501_924">
<rect width="16" height="16" fill="white"/>
</clipPath>
</defs>
</svg>
